<mxfile host="Electron" agent="Mozilla/5.0 (Windows NT 10.0; Win64; x64) AppleWebKit/537.36 (KHTML, like Gecko) draw.io/28.0.6 Chrome/138.0.7204.100 Electron/37.2.3 Safari/537.36" version="28.0.6">
  <diagram name="PÃ¡gina-1" id="g_7RSB4d2_iD8BFNp-J0">
    <mxGraphModel dx="1042" dy="626" grid="1" gridSize="10" guides="1" tooltips="1" connect="1" arrows="1" fold="1" page="1" pageScale="1" pageWidth="827" pageHeight="1169" math="0" shadow="0">
      <root>
        <mxCell id="0" />
        <mxCell id="1" parent="0" />
        <mxCell id="FLwpiXu6g_xVYzVOg_wH-33" value="" style="rounded=1;whiteSpace=wrap;html=1;fillColor=none;dashed=1;dashPattern=8 8;strokeColor=#6c8ebf;" vertex="1" parent="1">
          <mxGeometry x="530" y="80" width="260" height="360" as="geometry" />
        </mxCell>
        <mxCell id="FLwpiXu6g_xVYzVOg_wH-1" value="&lt;b&gt;&lt;font style=&quot;font-size: 15px;&quot;&gt;INTEGRATION MODEL&lt;/font&gt;&lt;/b&gt;" style="text;html=1;align=center;verticalAlign=middle;whiteSpace=wrap;rounded=0;" vertex="1" parent="1">
          <mxGeometry y="40" width="240" height="30" as="geometry" />
        </mxCell>
        <mxCell id="FLwpiXu6g_xVYzVOg_wH-3" value="crm_cust_info" style="swimlane;fontStyle=0;childLayout=stackLayout;horizontal=1;startSize=30;horizontalStack=0;resizeParent=1;resizeParentMax=0;resizeLast=0;collapsible=1;marginBottom=0;whiteSpace=wrap;html=1;align=center;fillColor=#f5f5f5;fontColor=#333333;strokeColor=#666666;" vertex="1" parent="1">
          <mxGeometry x="320" y="150" width="140" height="90" as="geometry" />
        </mxCell>
        <mxCell id="FLwpiXu6g_xVYzVOg_wH-4" value="cst_id" style="text;strokeColor=none;fillColor=none;align=center;verticalAlign=middle;spacingLeft=4;spacingRight=4;overflow=hidden;points=[[0,0.5],[1,0.5]];portConstraint=eastwest;rotatable=0;whiteSpace=wrap;html=1;" vertex="1" parent="FLwpiXu6g_xVYzVOg_wH-3">
          <mxGeometry y="30" width="140" height="30" as="geometry" />
        </mxCell>
        <mxCell id="FLwpiXu6g_xVYzVOg_wH-21" value="cst_key" style="text;strokeColor=default;fillColor=none;align=center;verticalAlign=middle;spacingLeft=4;spacingRight=4;overflow=hidden;points=[[0,0.5],[1,0.5]];portConstraint=eastwest;rotatable=0;whiteSpace=wrap;html=1;" vertex="1" parent="FLwpiXu6g_xVYzVOg_wH-3">
          <mxGeometry y="60" width="140" height="30" as="geometry" />
        </mxCell>
        <mxCell id="FLwpiXu6g_xVYzVOg_wH-7" value="crm_prd_info" style="swimlane;fontStyle=0;childLayout=stackLayout;horizontal=1;startSize=30;horizontalStack=0;resizeParent=1;resizeParentMax=0;resizeLast=0;collapsible=1;marginBottom=0;whiteSpace=wrap;html=1;align=center;fillColor=#f5f5f5;fontColor=#333333;strokeColor=#666666;" vertex="1" parent="1">
          <mxGeometry x="320" y="330" width="140" height="60" as="geometry" />
        </mxCell>
        <mxCell id="FLwpiXu6g_xVYzVOg_wH-8" value="prd_key" style="text;strokeColor=none;fillColor=none;align=center;verticalAlign=middle;spacingLeft=4;spacingRight=4;overflow=hidden;points=[[0,0.5],[1,0.5]];portConstraint=eastwest;rotatable=0;whiteSpace=wrap;html=1;" vertex="1" parent="FLwpiXu6g_xVYzVOg_wH-7">
          <mxGeometry y="30" width="140" height="30" as="geometry" />
        </mxCell>
        <mxCell id="FLwpiXu6g_xVYzVOg_wH-9" value="Customer information" style="text;html=1;align=center;verticalAlign=middle;whiteSpace=wrap;rounded=0;" vertex="1" parent="1">
          <mxGeometry x="320" y="120" width="140" height="30" as="geometry" />
        </mxCell>
        <mxCell id="FLwpiXu6g_xVYzVOg_wH-10" value="Current &amp;amp; historical product information" style="text;html=1;align=center;verticalAlign=middle;whiteSpace=wrap;rounded=0;" vertex="1" parent="1">
          <mxGeometry x="320" y="300" width="140" height="30" as="geometry" />
        </mxCell>
        <mxCell id="FLwpiXu6g_xVYzVOg_wH-11" value="crm_sales_details" style="swimlane;fontStyle=0;childLayout=stackLayout;horizontal=1;startSize=30;horizontalStack=0;resizeParent=1;resizeParentMax=0;resizeLast=0;collapsible=1;marginBottom=0;whiteSpace=wrap;html=1;align=center;fillColor=#f5f5f5;fontColor=#333333;strokeColor=#666666;" vertex="1" parent="1">
          <mxGeometry x="120" y="250" width="140" height="90" as="geometry" />
        </mxCell>
        <mxCell id="FLwpiXu6g_xVYzVOg_wH-12" value="sls_cust_id" style="text;strokeColor=none;fillColor=none;align=center;verticalAlign=middle;spacingLeft=4;spacingRight=4;overflow=hidden;points=[[0,0.5],[1,0.5]];portConstraint=eastwest;rotatable=0;whiteSpace=wrap;html=1;" vertex="1" parent="FLwpiXu6g_xVYzVOg_wH-11">
          <mxGeometry y="30" width="140" height="30" as="geometry" />
        </mxCell>
        <mxCell id="FLwpiXu6g_xVYzVOg_wH-14" value="sls_prd_key" style="text;strokeColor=default;fillColor=none;align=center;verticalAlign=middle;spacingLeft=4;spacingRight=4;overflow=hidden;points=[[0,0.5],[1,0.5]];portConstraint=eastwest;rotatable=0;whiteSpace=wrap;html=1;" vertex="1" parent="FLwpiXu6g_xVYzVOg_wH-11">
          <mxGeometry y="60" width="140" height="30" as="geometry" />
        </mxCell>
        <mxCell id="FLwpiXu6g_xVYzVOg_wH-13" value="Sales transactions &amp;amp; orders information" style="text;html=1;align=center;verticalAlign=middle;whiteSpace=wrap;rounded=0;" vertex="1" parent="1">
          <mxGeometry x="120" y="220" width="140" height="30" as="geometry" />
        </mxCell>
        <mxCell id="FLwpiXu6g_xVYzVOg_wH-15" style="edgeStyle=orthogonalEdgeStyle;rounded=0;orthogonalLoop=1;jettySize=auto;html=1;entryX=0;entryY=0.5;entryDx=0;entryDy=0;" edge="1" parent="1" source="FLwpiXu6g_xVYzVOg_wH-12" target="FLwpiXu6g_xVYzVOg_wH-4">
          <mxGeometry relative="1" as="geometry" />
        </mxCell>
        <mxCell id="FLwpiXu6g_xVYzVOg_wH-16" style="edgeStyle=orthogonalEdgeStyle;rounded=0;orthogonalLoop=1;jettySize=auto;html=1;entryX=0;entryY=0.5;entryDx=0;entryDy=0;" edge="1" parent="1" source="FLwpiXu6g_xVYzVOg_wH-14" target="FLwpiXu6g_xVYzVOg_wH-8">
          <mxGeometry relative="1" as="geometry" />
        </mxCell>
        <mxCell id="FLwpiXu6g_xVYzVOg_wH-17" value="erp_CUST_AZ12" style="swimlane;fontStyle=0;childLayout=stackLayout;horizontal=1;startSize=30;horizontalStack=0;resizeParent=1;resizeParentMax=0;resizeLast=0;collapsible=1;marginBottom=0;whiteSpace=wrap;html=1;align=center;fillColor=#dae8fc;strokeColor=#6c8ebf;" vertex="1" parent="1">
          <mxGeometry x="580" y="120" width="140" height="60" as="geometry" />
        </mxCell>
        <mxCell id="FLwpiXu6g_xVYzVOg_wH-18" value="CID" style="text;strokeColor=none;fillColor=none;align=center;verticalAlign=middle;spacingLeft=4;spacingRight=4;overflow=hidden;points=[[0,0.5],[1,0.5]];portConstraint=eastwest;rotatable=0;whiteSpace=wrap;html=1;" vertex="1" parent="FLwpiXu6g_xVYzVOg_wH-17">
          <mxGeometry y="30" width="140" height="30" as="geometry" />
        </mxCell>
        <mxCell id="FLwpiXu6g_xVYzVOg_wH-19" value="Additional BDATE customer information" style="text;html=1;align=center;verticalAlign=middle;whiteSpace=wrap;rounded=0;" vertex="1" parent="1">
          <mxGeometry x="580" y="90" width="140" height="30" as="geometry" />
        </mxCell>
        <mxCell id="FLwpiXu6g_xVYzVOg_wH-22" style="edgeStyle=orthogonalEdgeStyle;rounded=0;orthogonalLoop=1;jettySize=auto;html=1;entryX=0;entryY=0.5;entryDx=0;entryDy=0;" edge="1" parent="1" source="FLwpiXu6g_xVYzVOg_wH-21" target="FLwpiXu6g_xVYzVOg_wH-18">
          <mxGeometry relative="1" as="geometry" />
        </mxCell>
        <mxCell id="FLwpiXu6g_xVYzVOg_wH-23" value="erp_LOC_A101" style="swimlane;fontStyle=0;childLayout=stackLayout;horizontal=1;startSize=30;horizontalStack=0;resizeParent=1;resizeParentMax=0;resizeLast=0;collapsible=1;marginBottom=0;whiteSpace=wrap;html=1;align=center;fillColor=#dae8fc;strokeColor=#6c8ebf;" vertex="1" parent="1">
          <mxGeometry x="580" y="242.5" width="140" height="60" as="geometry" />
        </mxCell>
        <mxCell id="FLwpiXu6g_xVYzVOg_wH-24" value="CID" style="text;strokeColor=none;fillColor=none;align=center;verticalAlign=middle;spacingLeft=4;spacingRight=4;overflow=hidden;points=[[0,0.5],[1,0.5]];portConstraint=eastwest;rotatable=0;whiteSpace=wrap;html=1;" vertex="1" parent="FLwpiXu6g_xVYzVOg_wH-23">
          <mxGeometry y="30" width="140" height="30" as="geometry" />
        </mxCell>
        <mxCell id="FLwpiXu6g_xVYzVOg_wH-25" value="Additional COUNTRY customer information" style="text;html=1;align=center;verticalAlign=middle;whiteSpace=wrap;rounded=0;" vertex="1" parent="1">
          <mxGeometry x="580" y="210" width="140" height="30" as="geometry" />
        </mxCell>
        <mxCell id="FLwpiXu6g_xVYzVOg_wH-27" style="edgeStyle=orthogonalEdgeStyle;rounded=0;orthogonalLoop=1;jettySize=auto;html=1;entryX=0;entryY=0.5;entryDx=0;entryDy=0;" edge="1" parent="1" source="FLwpiXu6g_xVYzVOg_wH-21" target="FLwpiXu6g_xVYzVOg_wH-24">
          <mxGeometry relative="1" as="geometry" />
        </mxCell>
        <mxCell id="FLwpiXu6g_xVYzVOg_wH-28" value="erp_PX_CAT_G1V2" style="swimlane;fontStyle=0;childLayout=stackLayout;horizontal=1;startSize=30;horizontalStack=0;resizeParent=1;resizeParentMax=0;resizeLast=0;collapsible=1;marginBottom=0;whiteSpace=wrap;html=1;align=center;fillColor=#dae8fc;strokeColor=#6c8ebf;" vertex="1" parent="1">
          <mxGeometry x="580" y="360" width="140" height="60" as="geometry" />
        </mxCell>
        <mxCell id="FLwpiXu6g_xVYzVOg_wH-29" value="ID" style="text;strokeColor=none;fillColor=none;align=center;verticalAlign=middle;spacingLeft=4;spacingRight=4;overflow=hidden;points=[[0,0.5],[1,0.5]];portConstraint=eastwest;rotatable=0;whiteSpace=wrap;html=1;" vertex="1" parent="FLwpiXu6g_xVYzVOg_wH-28">
          <mxGeometry y="30" width="140" height="30" as="geometry" />
        </mxCell>
        <mxCell id="FLwpiXu6g_xVYzVOg_wH-30" value="Additional COUNTRY customer information" style="text;html=1;align=center;verticalAlign=middle;whiteSpace=wrap;rounded=0;" vertex="1" parent="1">
          <mxGeometry x="580" y="330" width="140" height="30" as="geometry" />
        </mxCell>
        <mxCell id="FLwpiXu6g_xVYzVOg_wH-31" style="edgeStyle=orthogonalEdgeStyle;rounded=0;orthogonalLoop=1;jettySize=auto;html=1;entryX=0;entryY=0.5;entryDx=0;entryDy=0;" edge="1" parent="1" source="FLwpiXu6g_xVYzVOg_wH-8" target="FLwpiXu6g_xVYzVOg_wH-29">
          <mxGeometry relative="1" as="geometry" />
        </mxCell>
        <mxCell id="FLwpiXu6g_xVYzVOg_wH-32" value="" style="rounded=1;whiteSpace=wrap;html=1;fillColor=none;dashed=1;dashPattern=8 8;strokeColor=#666666;fontColor=#333333;" vertex="1" parent="1">
          <mxGeometry x="100" y="80" width="400" height="360" as="geometry" />
        </mxCell>
        <mxCell id="FLwpiXu6g_xVYzVOg_wH-34" value="CRM" style="text;html=1;align=center;verticalAlign=middle;whiteSpace=wrap;rounded=0;fillColor=#f5f5f5;strokeColor=#666666;fontStyle=1;fontSize=16;fontColor=#333333;" vertex="1" parent="1">
          <mxGeometry x="230" y="440" width="140" height="30" as="geometry" />
        </mxCell>
        <mxCell id="FLwpiXu6g_xVYzVOg_wH-35" value="ERP" style="text;html=1;align=center;verticalAlign=middle;whiteSpace=wrap;rounded=0;" vertex="1" parent="1">
          <mxGeometry x="630" y="440" width="60" height="30" as="geometry" />
        </mxCell>
        <mxCell id="FLwpiXu6g_xVYzVOg_wH-36" value="PRODUCT" style="rounded=0;whiteSpace=wrap;html=1;fillColor=#f8cecc;strokeColor=#b85450;" vertex="1" parent="1">
          <mxGeometry x="320" y="390" width="140" height="20" as="geometry" />
        </mxCell>
        <mxCell id="FLwpiXu6g_xVYzVOg_wH-38" value="PRODUCT" style="rounded=0;whiteSpace=wrap;html=1;fillColor=#f8cecc;strokeColor=#b85450;" vertex="1" parent="1">
          <mxGeometry x="580" y="420" width="140" height="20" as="geometry" />
        </mxCell>
        <mxCell id="FLwpiXu6g_xVYzVOg_wH-39" value="CUSTOMER" style="rounded=0;whiteSpace=wrap;html=1;fillColor=#ffe6cc;strokeColor=#d79b00;" vertex="1" parent="1">
          <mxGeometry x="320" y="240" width="140" height="20" as="geometry" />
        </mxCell>
        <mxCell id="FLwpiXu6g_xVYzVOg_wH-40" value="CUSTOMER" style="rounded=0;whiteSpace=wrap;html=1;fillColor=#ffe6cc;strokeColor=#d79b00;" vertex="1" parent="1">
          <mxGeometry x="580" y="302.5" width="140" height="20" as="geometry" />
        </mxCell>
        <mxCell id="FLwpiXu6g_xVYzVOg_wH-41" value="CUSTOMER" style="rounded=0;whiteSpace=wrap;html=1;fillColor=#ffe6cc;strokeColor=#d79b00;" vertex="1" parent="1">
          <mxGeometry x="580" y="180" width="140" height="20" as="geometry" />
        </mxCell>
        <mxCell id="FLwpiXu6g_xVYzVOg_wH-42" value="SALES" style="rounded=0;whiteSpace=wrap;html=1;fillColor=#d5e8d4;strokeColor=#82b366;" vertex="1" parent="1">
          <mxGeometry x="120" y="340" width="140" height="20" as="geometry" />
        </mxCell>
        <mxCell id="FLwpiXu6g_xVYzVOg_wH-43" value="ERP" style="text;html=1;align=center;verticalAlign=middle;whiteSpace=wrap;rounded=0;fillColor=#dae8fc;strokeColor=#6c8ebf;fontStyle=1;fontSize=16;" vertex="1" parent="1">
          <mxGeometry x="580" y="440" width="140" height="30" as="geometry" />
        </mxCell>
      </root>
    </mxGraphModel>
  </diagram>
</mxfile>
